<?xml version="1.0" encoding="UTF-8" standalone="no"?>
<!-- Created with Inkscape (http://www.inkscape.org/) -->
<svg xmlns:rdf="http://www.w3.org/1999/02/22-rdf-syntax-ns#" xmlns="http://www.w3.org/2000/svg" xml:space="preserve" height="259.48" width="411.01" version="1.1" xmlns:cc="http://creativecommons.org/ns#" xmlns:dc="http://purl.org/dc/elements/1.1/"><metadata><rdf:RDF><cc:Work rdf:about=""><dc:format>image/svg+xml</dc:format><dc:type rdf:resource="http://purl.org/dc/dcmitype/StillImage"/><dc:title/></cc:Work></rdf:RDF></metadata><g transform="matrix(1.25,0,0,-1.25,-278.5813,512.21314)" fill-rule="nonzero"><path d="m539.67,243.42c6.6289,0,12,5.373,12,12v102.33c0,6.627-5.3711,12-12,12h-303.07c-6.6279,0-12.001-5.373-12.001-12v-102.33c0-6.627,5.373-12,12.001-12h303.07z" fill="#15579e"/><path d="m539.43,202.29c12,0.48828,12,5.3711,12,11.998v11.744c0,6.627-2.4492,11.021-12,12h-304.54c-12.979-0.49023-12-5.373-12-12v-11.744c0-6.627,1.4688-12.979,12-11.998h304.54z" fill="#ee2922"/><path d="m239.74,226.72v-2.3262h-2.415v-10.604h-2.3965v10.604h-2.3799v2.3262h7.1914z" fill="#FFF"/><path d="m247.57,226.72v-2.3262h-4.5488v-2.9746h4.3564v-2.3281h-4.3564v-2.9746h4.5488v-2.3262h-6.9473v12.93h6.9473z" fill="#FFF"/><path d="m261.47,223.03h-2.7129c-0.83984,0.96289-2.082,1.6094-3.3945,1.6094-2.3965,0-4.2695-2.0644-4.2695-4.4434,0-2.293,1.9258-4.3926,4.2695-4.3926,1.3125,0,2.3799,0.61328,3.2725,1.5059h2.7646c-0.96289-2.3457-3.5176-3.832-6.002-3.832-3.7441,0-6.7012,3.1484-6.7012,6.7891,0,3.6562,3.0273,6.7012,6.6308,6.7012,2.5723,0,5.1797-1.5059,6.1426-3.9375z" fill="#FFF"/><path d="m265.06,226.72v-5.1777h4.6191v5.1777h2.3975v-12.93h-2.3975v5.4238h-4.6191v-5.4238h-2.3975v12.93h2.3975z" fill="#FFF"/><path d="m276.91,226.72s5.3887-9.4473,5.3887-9.4473v9.4473h2.3975v-12.93h-2.6592s-5.4248,9.4141-5.4248,9.4141v-9.4141h-2.3975v12.93h2.6953z" fill="#FFF"/><path d="m288.54,220.25c0-2.3984,1.9609-4.4453,4.3574-4.4453,2.3799,0,4.3223,2.0644,4.3223,4.4629,0,2.3789-1.8896,4.373-4.3398,4.373-2.4668,0-4.3398-1.9941-4.3398-4.3906zm11.076-0.0351c0-3.6758-2.9746-6.7363-6.7363-6.7363-3.7266,0-6.7363,3.043-6.7363,6.7188,0,3.6738,2.9394,6.7715,6.7363,6.7715,3.7793,0,6.7363-3.0801,6.7363-6.7539z" fill="#FFF"/><path d="m303.56,226.72v-10.604h3.9541v-2.3262h-6.3525v12.93h2.3984z" fill="#FFF"/><path d="m310.24,220.25c0-2.3984,1.96-4.4453,4.3574-4.4453,2.3789,0,4.3213,2.0644,4.3213,4.4629,0,2.3789-1.8896,4.373-4.3389,4.373-2.4668,0-4.3398-1.9941-4.3398-4.3906zm11.076-0.0351c0-3.6758-2.9746-6.7363-6.7363-6.7363-3.7275,0-6.7363,3.043-6.7363,6.7188,0,3.6738,2.9395,6.7715,6.7363,6.7715,3.7793,0,6.7363-3.0801,6.7363-6.7539z" fill="#FFF"/><path d="m335.33,222.93h-2.8691c-0.75293,1.0684-2.1006,1.7148-3.3945,1.7148-2.4502,0-4.4795-1.9766-4.4795-4.373,0-2.3984,2.0996-4.4629,4.5664-4.4629,1.5576,0,3.1152,0.94531,3.7969,2.3281h-5.4062v2.2559h8.4336c0-4.7598-3.832-6.9102-6.8945-6.9102-3.7793,0-6.8936,2.9746-6.8936,6.7012,0,3.6738,3.0098,6.7891,6.877,6.7891,2.624,0,5.2842-1.5762,6.2637-4.043z" fill="#FFF"/><path d="m338.71,226.72s2.8174-5.9492,2.8174-5.9492,2.8164,5.9492,2.8164,5.9492h2.625s-4.252-8.1523-4.252-8.1523v-4.7774h-2.3975v4.7774s-4.252,8.1523-4.252,8.1523h2.6426z" fill="#FFF"/><path d="m363.13,223.29h-2.4668c-0.0352,0.78906-0.68164,1.3477-1.4522,1.3477-0.75293,0-1.2774-0.5586-1.2774-1.3301,0-0.75195,0.4375-1.084,1.0146-1.3633,0.68262-0.33399,1.6094-0.47266,2.3799-0.94531,0.59472-0.36719,2.1172-1.1543,2.1172-3.4121,0-2.293-1.8721-4.1113-4.1992-4.1113-2.2051,0-4.1826,1.7129-4.1826,3.9531h2.502c0-1.0488,0.85742-1.627,1.7852-1.627,0.98046,0,1.6973,0.69922,1.6973,1.6445,0,0.83985-0.45508,1.418-1.3125,1.8027-1.2598,0.56054-1.3643,0.45507-2.0469,0.76953-1.4346,0.64844-2.1524,1.9941-2.1524,3.2891,0,2.0488,1.7324,3.6582,3.7969,3.6582,2.0478,0,3.7969-1.6621,3.7969-3.6758z" fill="#FFF"/><path d="m371.14,226.72v-2.3262h-2.4141v-10.604h-2.3975v10.604h-2.3799v2.3262h7.1914z" fill="#FFF"/><path d="m374.68,226.72v-8.7305c0-1.1191,0.78711-2.1875,1.959-2.1875,1.2422,0,1.9766,1.0684,1.9766,2.3613v8.5566h2.3984v-8.5215c0-1.3106-0.40234-2.6758-1.3125-3.4277-0.83984-0.70117-1.7852-1.2949-3.0449-1.2949-1.3828,0-2.5547,0.78711-3.167,1.3984-0.94434,0.94531-1.208,2.1172-1.208,3.3945v8.4512h2.3984z" fill="#FFF"/><path d="m385.79,216.12h0.48926c1.0684,0,2.2402,0.0879,3.1504,0.63086,1.1543,0.68164,1.9238,1.9766,1.9238,3.4648,0,1.3809-0.61133,2.7285-1.8887,3.5156-1.0859,0.66602-2.4326,0.66602-3.6748,0.66602v-8.2774zm0.6123,10.604c1.7676,0,3.7617-0.34961,5.0918-1.4688,1.4697-1.2246,2.2578-3.2383,2.2578-5.0391,0-1.8027-0.80566-3.6758-2.1523-4.8828-1.3652-1.1719-3.0801-1.5391-4.918-1.5391h-3.2891v12.93h3.0098z" fill="#FFF"/><path d="m402.5,226.72v-2.3262h-4.5498v-2.9746h4.3574v-2.3281h-4.3574v-2.9746h4.5498v-2.3262h-6.9463v12.93h6.9463z" fill="#FFF"/><path d="m407.25,226.72s5.3887-9.4473,5.3887-9.4473v9.4473h2.3984v-12.93h-2.6602s-5.4238,9.4141-5.4238,9.4141v-9.4141h-2.3975v12.93h2.6943z" fill="#FFF"/><path d="m423.55,226.72v-2.3262h-2.416v-10.604h-2.3955v10.604h-2.3799v2.3262h7.1914z" fill="#FFF"/><path d="m435.13,219.46h2.7637s-1.3809,3.9199-1.3809,3.9199-1.3828-3.9199-1.3828-3.9199zm2.3086,7.2617s5.4434-12.93,5.4434-12.93h-2.6426s-1.4004,3.3418-1.4004,3.3418h-4.584s-1.4355-3.3418-1.4355-3.3418h-2.6426s5.3906,12.93,5.3906,12.93h1.8711z" fill="#FFF"/><path d="m450.96,223.29h-2.4668c-0.0351,0.78906-0.68164,1.3477-1.4512,1.3477-0.7539,0-1.2773-0.5586-1.2773-1.3301,0-0.75195,0.4375-1.084,1.0137-1.3633,0.68359-0.33399,1.6094-0.47266,2.3809-0.94531,0.59375-0.36719,2.1172-1.1543,2.1172-3.4121,0-2.293-1.873-4.1113-4.1992-4.1113-2.2051,0-4.1836,1.7129-4.1836,3.9531h2.5039c0-1.0488,0.85742-1.627,1.7832-1.627,0.98047,0,1.6973,0.69922,1.6973,1.6445,0,0.83985-0.45508,1.418-1.3125,1.8027-1.2598,0.56054-1.3633,0.45507-2.0469,0.76953-1.4336,0.64844-2.1523,1.9941-2.1523,3.2891,0,2.0488,1.7324,3.6582,3.7969,3.6582,2.0488,0,3.7969-1.6621,3.7969-3.6758z" fill="#FFF"/><path d="m459.71,223.29h-2.4688c-0.0352,0.78906-0.68164,1.3477-1.4512,1.3477-0.75196,0-1.2774-0.5586-1.2774-1.3301,0-0.75195,0.4375-1.084,1.0137-1.3633,0.6836-0.33399,1.6113-0.47266,2.3809-0.94531,0.59375-0.36719,2.1172-1.1543,2.1172-3.4121,0-2.293-1.873-4.1113-4.1992-4.1113-2.2051,0-4.1816,1.7129-4.1816,3.9531h2.502c0-1.0488,0.85743-1.627,1.7832-1.627,0.98047,0,1.6973,0.69922,1.6973,1.6445,0,0.83985-0.45507,1.418-1.3125,1.8027-1.2598,0.56054-1.3633,0.45507-2.0469,0.76953-1.4336,0.64844-2.1524,1.9941-2.1524,3.2891,0,2.0488,1.7324,3.6582,3.7969,3.6582,2.0488,0,3.7988-1.6621,3.7988-3.6758z" fill="#FFF"/><path d="m463.07,220.25c0-2.3984,1.9609-4.4453,4.3574-4.4453,2.3789,0,4.3223,2.0644,4.3223,4.4629,0,2.3789-1.8906,4.373-4.3398,4.373-2.4668,0-4.3398-1.9941-4.3398-4.3906zm11.076-0.0351c0-3.6758-2.9746-6.7363-6.7363-6.7363-3.7266,0-6.7363,3.043-6.7363,6.7188,0,3.6738,2.9395,6.7715,6.7363,6.7715,3.7793,0,6.7363-3.0801,6.7363-6.7539z" fill="#FFF"/><path d="m487.79,223.03h-2.7129c-0.83985,0.96289-2.082,1.6094-3.3945,1.6094-2.3965,0-4.2695-2.0644-4.2695-4.4434,0-2.293,1.9258-4.3926,4.2695-4.3926,1.3125,0,2.3809,0.61328,3.2715,1.5059h2.7656c-0.96289-2.3457-3.5176-3.832-6.002-3.832-3.7441,0-6.7012,3.1484-6.7012,6.7891,0,3.6562,3.0273,6.7012,6.6309,6.7012,2.5723,0,5.1797-1.5059,6.1426-3.9375z" fill="#FFF"/><path d="m491.38,226.72v-12.93h-2.3965v12.93h2.3965z" fill="#FFF"/><path d="m497.41,219.46h2.7637s-1.3828,3.9199-1.3828,3.9199-1.3809-3.9199-1.3809-3.9199zm2.3086,7.2617s5.4414-12.93,5.4414-12.93h-2.6406s-1.4004,3.3418-1.4004,3.3418h-4.584s-1.4356-3.3418-1.4356-3.3418h-2.6426s5.3906,12.93,5.3906,12.93h1.8711z" fill="#FFF"/><path d="m512.25,226.72v-2.3262h-2.416v-10.604h-2.3965v10.604h-2.3789v2.3262h7.1914z" fill="#FFF"/><path d="m515.52,226.72v-12.93h-2.3984v12.93h2.3984z" fill="#FFF"/><path d="m519.4,220.25c0-2.3984,1.959-4.4453,4.3574-4.4453,2.3789,0,4.3223,2.0644,4.3223,4.4629,0,2.3789-1.8906,4.373-4.3398,4.373-2.4668,0-4.3398-1.9941-4.3398-4.3906zm11.076-0.0351c0-3.6758-2.9746-6.7363-6.7363-6.7363-3.7266,0-6.7363,3.043-6.7363,6.7188,0,3.6738,2.9394,6.7715,6.7363,6.7715,3.7793,0,6.7363-3.0801,6.7363-6.7539z" fill="#FFF"/><path d="m534.71,226.72s5.3887-9.4473,5.3887-9.4473v9.4473h2.3965v-12.93h-2.6582s-5.4258,9.4141-5.4258,9.4141v-9.4141h-2.3965v12.93h2.6953z" fill="#FFF"/><path d="m241.49,357.46h233.06c14.209,0,16.648-7.0103,18.607-10.015,1.957-3.0049,52.391-91.636,52.391-93.138s-0.98047-2.5273-3.4277-2.5293h-93.031c-3.7969,0-2.9375,1.0273-2.9375,1.0273s10.771,28.541,10.771,28.541h23.504c3.916,0,4.8945,1.877,3.916,4.0059-1.5918,2.8789-21.543,37.556-23.992,41.562-2.4473,4.0059-2.4414,6.27-8.3242,6.27h-121.68c-13.709,0-18.361-15.283-19.585-18.038-1.2236-2.7539-21.544-56.334-22.769-59.337-1.2236-3.0039-3.1816-4.0312-5.3848-4.0312h-38.438s23.258,62.368,24.973,67.375c1.7129,5.0078,1.958,14.032-6.1211,14.032h-29.133c-1.2246,0-1.2246,3.9946-1.4688,2.4922-0.24609-1.502,9.0576,21.783,9.0576,21.783z" fill="#FFF"/><path d="m333.05,328.67h45.781s-2.4492-6.0093,2.6924-8.2627c5.1416-2.2539,28.399-11.266,35.254-15.272,6.8535-4.0064,7.5879-12.268,5.3848-18.028-2.2022-5.7578-7.3438-19.527-9.5469-24.785-2.2031-5.2578-9.0576-10.541-17.382-10.541-8.3242,0-96.947,0.25-98.906,0s-1.7139,4.5312-1.7139,2.7793c0-1.752,8.5693,25.789,8.5693,25.789h72.465c5.3867,0,6.1211,6.7578-1.2236,8.2617-3.1826,1.252-38.437,17.526-38.437,17.526s-8.5684,2.7529-6.8545,11.266c1.7139,8.5132,2.9375,10.266,3.917,11.268z" fill="#FFF"/><path d="m447.38,328.42c7.0996,0,13.219-11.767,14.443-16.023,0,0-22.033-60.615-22.033-60.615h-29.866s7.5889,3.7793,9.3027,9.7891c1.7129,6.0098,5.874,15.523,9.5459,26.789,3.6738,11.268-6.1191,18.529-10.525,21.033-2.2031,0.62597-1.958,3.0039-1.958,3.0039s4.1611,13.27,6.1182,16.023h24.973z" fill="#FFF"/><path d="m539.43,374.03c12,0.48975,12,5.3726,12,12v11.744c0,6.627-2.4492,11.02-12,12h-304.54c-12.979-0.48975-12-5.3726-12-12v-11.744c0-6.6274,1.4688-12.979,12-12h304.54z" fill="#ee2922"/></g></svg>
